<svg xmlns="http://www.w3.org/2000/svg" version="1.1" xmlns:xlink="http://www.w3.org/1999/xlink" xmlns:svgjs="http://svgjs.com/svgjs" width="1440" height="560" preserveAspectRatio="none" viewBox="0 0 1440 560">
    <g mask="url(&quot;#SvgjsMask1022&quot;)" fill="none">
        <rect width="1440" height="560" x="0" y="0" fill="#0e2a47"></rect>
        <path d="M 0,126 C 57.6,150 172.8,244.8 288,246 C 403.2,247.2 460.8,131.4 576,132 C 691.2,132.6 748.8,270.8 864,249 C 979.2,227.2 1036.8,29 1152,23 C 1267.2,17 1382.4,179.8 1440,219L1440 560L0 560z" fill="#184a7e"></path>
        <path d="M 0,392 C 36,412.8 108,494.8 180,496 C 252,497.2 288,404.6 360,398 C 432,391.4 468,480.4 540,463 C 612,445.6 648,292.8 720,311 C 792,329.2 828,558.8 900,554 C 972,549.2 1008,289.4 1080,287 C 1152,284.6 1188,519 1260,542 C 1332,565 1404,430 1440,402L1440 560L0 560z" fill="#2264ab"></path>
    </g>
    <defs>
        <mask id="SvgjsMask1022">
            <rect width="1440" height="560" fill="#ffffff"></rect>
        </mask>
    </defs>
</svg>