<svg xmlns="http://www.w3.org/2000/svg" version="1.1" xmlns:xlink="http://www.w3.org/1999/xlink" xmlns:svgjs="http://svgjs.com/svgjs" width="2000" height="560" preserveAspectRatio="none" viewBox="0 0 2000 560">
    <g mask="url(&quot;#SvgjsMask1002&quot;)" fill="none">
        <rect width="2000" height="560" x="0" y="0" fill="#0e2a47"></rect>
        <path d="M1682.2594289955166 376.33635120440056L1744.24290859191 281.0890120446166 1645.1458231788893 274.1594687887904z" fill="rgba(28, 83, 142, 0.4)" class="triangle-float1"></path>
        <path d="M1443.0278902609055 500.6813589130945L1446.5697107354072 399.2568907226467 1345.1452425449593 395.71507024814497 1341.6034220704576 497.1395384385928z" fill="rgba(28, 83, 142, 0.4)" class="triangle-float2"></path>
        <path d="M621.985,380.137C665.896,379.381,702.863,350.135,724.097,311.692C744.586,274.598,746.869,229.565,725.303,193.087C704.097,157.218,663.653,138.646,621.985,138.971C580.915,139.292,542.93,159.689,521.424,194.679C498.808,231.474,493.011,277.347,513.598,315.315C535.105,354.979,576.872,380.913,621.985,380.137" fill="rgba(28, 83, 142, 0.4)" class="triangle-float1"></path>
        <path d="M1226.2620960155546-13.686721537181832L1131.0851457172953-75.49535575825347 1069.2765114962237 19.68159454000579 1164.453461794483 81.49022876107742z" fill="rgba(28, 83, 142, 0.4)" class="triangle-float2"></path>
        <path d="M1624.396,191.022C1652.076,190.821,1671.865,167.542,1685.595,143.506C1699.185,119.717,1708.053,91.496,1695.016,67.4C1681.461,42.348,1652.877,30.814,1624.396,30.395C1595.071,29.963,1564.222,39.573,1550.079,65.266C1536.3,90.298,1547.1,119.806,1561.637,144.406C1575.847,168.451,1596.467,191.225,1624.396,191.022" fill="rgba(28, 83, 142, 0.4)" class="triangle-float1"></path>
        <path d="M1657.913792614366 538.0702861505164L1820.2647549683848 569.6281164016965 1689.4716228655461 375.71932379649775z" fill="rgba(28, 83, 142, 0.4)" class="triangle-float3"></path>
        <path d="M1567.438432936897 173.108130846942L1672.8800829019765 255.48817639981115 1755.2601284548457 150.0465264347317 1649.8184784897662 67.66648088186255z" fill="rgba(28, 83, 142, 0.4)" class="triangle-float1"></path>
        <path d="M791.7483120196545 438.80601991976897L861.5694941139618 522.0156645198342 944.7791387140271 452.19448242552687 874.9579566197198 368.9848378254616z" fill="rgba(28, 83, 142, 0.4)" class="triangle-float1"></path>
        <path d="M809.4975876308555 0.27636331050018015L742.559493210213-64.3650030784903 677.9181268212225 2.5730913421522317 744.856221241865 67.21445773114272z" fill="rgba(28, 83, 142, 0.4)" class="triangle-float1"></path>
        <path d="M1154.806803760142-5.457863637506527L1082.3017557778653-73.06991470211446 1017.1362031720919 69.4936828036044z" fill="rgba(28, 83, 142, 0.4)" class="triangle-float2"></path>
        <path d="M957.6225524991337 382.3551646770205L987.7673398337328 294.8083453946536 900.2205205513658 264.6635580600546 870.0757332167668 352.21037734242145z" fill="rgba(28, 83, 142, 0.4)" class="triangle-float3"></path>
        <path d="M400.632,569.738C439.974,570.073,477.181,549.569,496.288,515.177C514.894,481.687,509.625,441.261,490.432,408.104C471.281,375.019,438.841,351.14,400.632,349.923C360.272,348.638,320.276,366.932,300.345,402.05C280.636,436.778,287.26,479.303,307.755,513.573C327.658,546.853,361.856,569.408,400.632,569.738" fill="rgba(28, 83, 142, 0.4)" class="triangle-float2"></path>
        <path d="M1281.7869745369546 127.00583728933766L1199.0974306044336 209.69538122185867 1364.4765184694756 209.69538122185864z" fill="rgba(28, 83, 142, 0.4)" class="triangle-float1"></path>
        <path d="M1705.017,328.468C1739.514,329.238,1769.26,307.187,1787.183,277.701C1805.928,246.862,1814.998,208.438,1796.987,177.164C1778.95,145.845,1741.154,134.411,1705.017,135.03C1670.102,135.628,1635.099,149.584,1618.351,180.226C1602.151,209.865,1611.918,245.013,1628.965,274.172C1645.815,302.993,1671.64,327.723,1705.017,328.468" fill="rgba(28, 83, 142, 0.4)" class="triangle-float3"></path>
        <path d="M626.6309206136732 462.0193124902349L600.1977578108946 543.3722224838198 735.4437042026613 542.3455116911952z" fill="rgba(28, 83, 142, 0.4)" class="triangle-float1"></path>
        <path d="M622.979,451.537C682.503,449.562,730.126,406.493,758.111,353.92C784.29,304.74,786.693,245.703,757.955,197.973C730.062,151.647,676.995,126.959,622.979,129.486C573.026,131.823,535.434,167.69,508.238,209.656C477.513,257.068,447.155,312.389,471.369,363.434C498.219,420.035,560.366,453.614,622.979,451.537" fill="rgba(28, 83, 142, 0.4)" class="triangle-float1"></path>
        <path d="M1585.4059195845266 352.3386536068883L1422.6339665516032 363.72077735629944 1434.0160903010144 526.4927303892227 1596.7880433339378 515.1106066398116z" fill="rgba(28, 83, 142, 0.4)" class="triangle-float3"></path>
        <path d="M1297.672,326.641C1351.99,328.634,1406.943,304.934,1433.082,257.277C1458.429,211.064,1445.915,154.188,1416.095,110.726C1390.049,72.764,1343.665,61.947,1297.672,59.921C1246.444,57.665,1187.151,56.128,1159.689,99.433C1131.05,144.594,1150.685,202.226,1178.443,247.934C1204.937,291.56,1246.665,324.77,1297.672,326.641" fill="rgba(28, 83, 142, 0.4)" class="triangle-float2"></path>
        <path d="M1818.1175516772455 272.05824774646834L1783.3429548617528 176.51582822526342 1687.8005353405479 211.2904250407562 1722.5751321560406 306.8328445619611z" fill="rgba(28, 83, 142, 0.4)" class="triangle-float3"></path>
        <path d="M679.410915844352 505.80558119072515L745.8209707819364 375.46850969904756 615.4838992902588 309.0584547614631 549.0738443526743 439.3955262531407z" fill="rgba(28, 83, 142, 0.4)" class="triangle-float2"></path>
    </g>
    <defs>
        <mask id="SvgjsMask1002">
            <rect width="2000" height="560" fill="#ffffff"></rect>
        </mask>
        <style>
            @keyframes float1 {
                0%{transform: translate(0, 0)}
                50%{transform: translate(-10px, 0)}
                100%{transform: translate(0, 0)}
            }

            .triangle-float1 {
                animation: float1 5s infinite;
            }

            @keyframes float2 {
                0%{transform: translate(0, 0)}
                50%{transform: translate(-5px, -5px)}
                100%{transform: translate(0, 0)}
            }

            .triangle-float2 {
                animation: float2 4s infinite;
            }

            @keyframes float3 {
                0%{transform: translate(0, 0)}
                50%{transform: translate(0, -10px)}
                100%{transform: translate(0, 0)}
            }

            .triangle-float3 {
                animation: float3 6s infinite;
            }
        </style>
    </defs>
</svg>