<?xml version="1.0" standalone="no"?>
<!DOCTYPE svg PUBLIC "-//W3C//DTD SVG 20010904//EN"
 "http://www.w3.org/TR/2001/REC-SVG-20010904/DTD/svg10.dtd">
<svg version="1.0" xmlns="http://www.w3.org/2000/svg"
 width="363.000000pt" height="357.000000pt" viewBox="0 0 363.000000 357.000000"
 preserveAspectRatio="xMidYMid meet">

<g transform="translate(0.000000,357.000000) scale(0.100000,-0.100000)"
fill="#000000" stroke="none">
<path d="M50 1785 l0 -1715 1775 0 1775 0 0 1715 0 1715 -1775 0 -1775 0 0
-1715z m3500 0 l0 -1665 -1725 0 -1725 0 0 1665 0 1665 1725 0 1725 0 0 -1665z"/>
<path d="M1380 3401 c0 -24 -3 -28 -20 -24 -29 8 -50 -14 -50 -52 0 -41 15
-53 63 -53 l37 0 0 79 c0 64 -3 79 -15 79 -10 0 -15 -10 -15 -29z m-5 -76 c0
-20 -6 -31 -17 -33 -15 -3 -18 4 -18 33 0 29 3 36 18 33 11 -2 17 -13 17 -33z"/>
<path d="M1560 3350 c0 -63 3 -80 14 -80 10 0 16 14 18 43 2 29 8 42 18 42 10
0 16 -13 18 -42 4 -57 32 -61 32 -5 0 49 -20 77 -49 69 -18 -4 -21 -1 -21 24
0 19 -5 29 -15 29 -12 0 -15 -16 -15 -80z"/>
<path d="M1950 3350 c0 -63 3 -80 14 -80 10 0 16 14 18 43 2 29 8 42 18 42 10
0 16 -13 18 -42 4 -57 32 -61 32 -5 0 49 -20 77 -49 69 -18 -4 -21 -1 -21 24
0 19 -5 29 -15 29 -12 0 -15 -16 -15 -80z"/>
<path d="M990 3346 l0 -76 40 0 c22 0 40 5 40 10 0 6 -11 10 -25 10 -23 0 -24
4 -27 62 -2 38 -8 63 -15 66 -10 3 -13 -16 -13 -72z"/>
<path d="M1490 3396 c0 -8 -6 -17 -12 -19 -10 -4 -10 -8 -1 -14 6 -4 13 -26
15 -48 2 -33 7 -41 26 -43 12 -2 22 1 22 7 0 6 -4 11 -10 11 -15 0 -12 67 3
74 10 5 10 7 0 12 -7 3 -13 12 -13 20 0 8 -7 14 -15 14 -8 0 -15 -6 -15 -14z"/>
<path d="M1095 3364 c-20 -21 -16 -73 7 -88 11 -7 26 -7 45 0 51 18 41 104
-13 104 -12 0 -30 -7 -39 -16z m55 -39 c0 -28 -4 -35 -20 -35 -16 0 -20 7 -20
35 0 28 4 35 20 35 16 0 20 -7 20 -35z"/>
<path d="M1213 3373 c-25 -10 -12 -22 17 -16 17 3 30 1 30 -4 0 -6 -14 -13
-31 -17 -26 -5 -30 -10 -27 -33 3 -25 7 -28 46 -30 l42 -2 0 43 c0 23 -5 47
-12 54 -12 12 -43 15 -65 5z m47 -62 c0 -14 -18 -23 -30 -16 -6 4 -8 11 -5 16
8 12 35 12 35 0z"/>
<path d="M1696 3364 c-36 -35 -7 -98 42 -92 34 4 39 24 6 23 -15 0 -29 6 -31
13 -3 8 7 12 31 12 28 0 36 4 36 18 0 40 -54 57 -84 26z m54 -14 c0 -5 -9 -10
-20 -10 -11 0 -20 5 -20 10 0 6 9 10 20 10 11 0 20 -4 20 -10z"/>
<path d="M1866 3365 c-34 -34 -10 -100 34 -93 31 4 37 25 8 24 -19 -1 -23 4
-23 29 0 25 4 30 23 29 12 0 21 4 19 10 -6 18 -43 18 -61 1z"/>
<path d="M2085 3364 c-20 -21 -16 -73 7 -88 11 -7 26 -7 45 0 51 18 41 104
-13 104 -12 0 -30 -7 -39 -16z m55 -39 c0 -28 -4 -35 -20 -35 -16 0 -20 7 -20
35 0 28 4 35 20 35 16 0 20 -7 20 -35z"/>
<path d="M2190 3304 c0 -59 3 -74 15 -74 9 0 15 9 15 24 0 19 4 23 20 19 29
-8 50 14 50 52 0 41 -15 53 -62 53 l-38 0 0 -74z m68 24 c-3 -36 -30 -46 -36
-15 -5 26 5 47 23 47 12 0 15 -8 13 -32z"/>
<path d="M2310 3304 c0 -59 3 -74 15 -74 9 0 15 9 15 24 0 19 4 23 20 19 29
-8 50 14 50 52 0 41 -15 53 -62 53 l-38 0 0 -74z m68 24 c-3 -36 -30 -46 -36
-15 -5 26 5 47 23 47 12 0 15 -8 13 -32z"/>
<path d="M2446 3364 c-36 -35 -7 -98 42 -92 34 4 39 24 6 23 -15 0 -29 6 -31
13 -3 8 7 12 31 12 28 0 36 4 36 18 0 40 -54 57 -84 26z m54 -14 c0 -5 -9 -10
-20 -10 -11 0 -20 5 -20 10 0 6 9 10 20 10 11 0 20 -4 20 -10z"/>
<path d="M2550 3324 c0 -41 4 -54 15 -54 10 0 15 10 15 29 0 39 9 61 26 61 8
0 14 4 14 9 0 5 -16 9 -35 9 l-35 0 0 -54z"/>
<path d="M2635 3291 c-7 -12 12 -24 25 -16 11 7 4 25 -10 25 -5 0 -11 -4 -15
-9z"/>
<path d="M2695 3291 c-7 -12 12 -24 25 -16 11 7 4 25 -10 25 -5 0 -11 -4 -15
-9z"/>
<path d="M2755 3291 c-7 -12 12 -24 25 -16 11 7 4 25 -10 25 -5 0 -11 -4 -15
-9z"/>
<path d="M990 3066 l0 -76 40 0 c22 0 40 5 40 10 0 6 -11 10 -25 10 -23 0 -24
4 -27 62 -2 38 -8 63 -15 66 -10 3 -13 -16 -13 -72z"/>
<path d="M1335 3131 c-7 -12 12 -24 25 -16 11 7 4 25 -10 25 -5 0 -11 -4 -15
-9z"/>
<path d="M1715 3131 c-7 -12 12 -24 25 -16 11 7 4 25 -10 25 -5 0 -11 -4 -15
-9z"/>
<path d="M1210 3116 c0 -8 -6 -17 -12 -19 -10 -4 -10 -8 -1 -14 6 -4 13 -26
15 -48 2 -33 7 -41 26 -43 12 -2 22 1 22 7 0 6 -4 11 -10 11 -15 0 -12 67 3
74 10 5 10 7 0 12 -7 3 -13 12 -13 20 0 8 -7 14 -15 14 -8 0 -15 -6 -15 -14z"/>
<path d="M1400 3116 c0 -8 -6 -17 -12 -19 -10 -4 -10 -8 -1 -14 6 -4 13 -26
15 -48 2 -33 7 -41 26 -43 12 -2 22 1 22 7 0 6 -4 11 -10 11 -15 0 -12 67 3
74 10 5 10 7 0 12 -7 3 -13 12 -13 20 0 8 -7 14 -15 14 -8 0 -15 -6 -15 -14z"/>
<path d="M1096 3084 c-36 -35 -7 -98 42 -92 34 4 39 24 6 23 -15 0 -29 6 -31
13 -3 8 7 12 31 12 28 0 36 4 36 18 0 40 -54 57 -84 26z m54 -14 c0 -5 -9 -10
-20 -10 -11 0 -20 5 -20 10 0 6 9 10 20 10 11 0 20 -4 20 -10z"/>
<path d="M1340 3045 c0 -30 5 -55 10 -55 6 0 10 25 10 55 0 30 -4 55 -10 55
-5 0 -10 -25 -10 -55z"/>
<path d="M1520 3044 c0 -41 4 -54 15 -54 10 0 15 10 15 29 0 39 9 61 26 61 8
0 14 4 14 9 0 5 -16 9 -35 9 l-35 0 0 -54z"/>
<path d="M1613 3093 c-25 -10 -12 -22 17 -16 17 3 30 1 30 -4 0 -6 -14 -13
-31 -17 -26 -5 -30 -10 -27 -33 3 -25 7 -28 46 -30 l42 -2 0 43 c0 23 -5 47
-12 54 -12 12 -43 15 -65 5z m47 -62 c0 -14 -18 -23 -30 -16 -6 4 -8 11 -5 16
8 12 35 12 35 0z"/>
<path d="M1720 3045 c0 -30 5 -55 10 -55 6 0 10 25 10 55 0 30 -4 55 -10 55
-5 0 -10 -25 -10 -55z"/>
<path d="M1770 3044 c0 -40 4 -54 14 -54 10 0 16 14 18 43 2 29 8 42 18 42 10
0 16 -13 18 -42 4 -55 32 -61 32 -7 0 56 -14 73 -60 72 l-40 0 0 -54z"/>
<path d="M1955 3084 c-20 -21 -16 -73 7 -88 11 -7 26 -7 45 0 51 18 41 104
-13 104 -12 0 -30 -7 -39 -16z m55 -39 c0 -28 -4 -35 -20 -35 -16 0 -20 7 -20
35 0 28 4 35 20 35 16 0 20 -7 20 -35z"/>
<path d="M2060 3044 c0 -40 4 -54 14 -54 10 0 16 14 18 43 2 29 8 42 18 42 10
0 16 -13 18 -42 4 -55 32 -61 32 -7 0 56 -14 73 -60 72 l-40 0 0 -54z"/>
<path d="M2241 3045 c11 -30 18 -64 14 -75 -4 -14 -2 -20 8 -20 10 0 24 27 40
75 19 55 22 75 13 75 -7 0 -20 -17 -28 -37 l-14 -38 -13 38 c-7 20 -19 37 -27
37 -11 0 -10 -11 7 -55z"/>
<path d="M2355 3084 c-20 -21 -16 -73 7 -88 11 -7 26 -7 45 0 51 18 41 104
-13 104 -12 0 -30 -7 -39 -16z m55 -39 c0 -28 -4 -35 -20 -35 -16 0 -20 7 -20
35 0 28 4 35 20 35 16 0 20 -7 20 -35z"/>
<path d="M2460 3064 c0 -56 14 -73 60 -72 l40 0 0 54 c0 40 -4 54 -14 54 -10
0 -16 -14 -18 -42 -2 -30 -8 -43 -18 -43 -10 0 -16 13 -18 43 -4 54 -32 60
-32 6z"/>
<path d="M948 2826 c-124 -36 -218 -150 -218 -266 0 -129 122 -258 262 -276
l48 -7 -6 -146 c-3 -80 -10 -160 -15 -178 l-10 -31 -102 -6 c-56 -3 -223 -11
-372 -17 -148 -5 -274 -14 -279 -19 -15 -15 2 -40 26 -40 13 0 183 7 378 15
195 8 358 11 362 7 5 -5 15 -181 23 -391 l13 -383 -25 -47 c-15 -25 -102 -180
-195 -345 -93 -164 -167 -304 -164 -312 11 -30 37 -11 74 54 22 37 102 179
179 315 l141 248 165 -283 c92 -158 172 -284 181 -286 41 -9 20 40 -138 310
l-165 284 -16 423 c-8 234 -13 426 -12 428 2 2 136 -42 297 -97 162 -55 300
-98 308 -95 7 3 12 13 10 22 -2 12 -85 45 -313 124 l-310 106 3 84 c5 168 14
260 26 264 147 41 246 151 246 275 0 95 -70 199 -164 245 -65 32 -169 41 -238
21z m178 -51 c136 -40 209 -186 153 -302 -76 -158 -302 -191 -429 -64 -92 93
-92 209 0 301 72 73 172 96 276 65z"/>
<path d="M2460 2777 c-118 -34 -200 -109 -221 -201 -19 -87 1 -147 70 -216 45
-45 69 -60 124 -78 37 -12 76 -22 87 -22 19 0 20 -7 20 -180 0 -99 -2 -180 -4
-180 -2 0 -181 74 -397 165 -216 91 -399 163 -406 160 -46 -17 4 -43 392 -207
220 -93 403 -172 408 -177 4 -4 18 -229 32 -500 l25 -493 -43 -47 c-23 -26
-132 -143 -242 -260 -110 -116 -200 -219 -200 -229 0 -47 43 -10 266 226 l234
250 16 -37 c8 -20 51 -137 95 -260 43 -123 85 -226 92 -229 42 -16 34 21 -57
278 -51 143 -97 277 -102 298 -5 20 -21 253 -34 516 -20 387 -23 482 -13 492
7 6 168 70 357 140 189 71 346 134 348 142 3 7 1 18 -5 24 -10 10 -318 -98
-664 -233 l-48 -19 0 178 0 178 76 22 c67 20 84 30 133 80 109 110 110 225 1
332 -36 36 -73 61 -105 73 -65 24 -177 31 -235 14z m225 -66 c87 -38 144 -113
145 -189 0 -77 -79 -166 -177 -197 -223 -70 -448 120 -344 291 66 109 244 154
376 95z"/>
</g>
</svg>
