<svg xmlns="http://www.w3.org/2000/svg" version="1.1" xmlns:xlink="http://www.w3.org/1999/xlink" xmlns:svgjs="http://svgjs.com/svgjs" width="2000" height="560" preserveAspectRatio="none" viewBox="0 0 2000 560">
    <g mask="url(&quot;#SvgjsMask1012&quot;)" fill="none">
        <rect width="2000" height="560" x="0" y="0" fill="#0e2a47"></rect>
        <path d="M1229.69458105557 301.8037220997708L1312.1991877129697 333.47427332028997 1318.4527112150486 193.88208772393097z" fill="rgba(28, 83, 142, 0.4)" class="triangle-float2"></path>
        <path d="M1447.252,664.866C1501.349,661.869,1536.138,612.355,1560.434,563.928C1581.777,521.387,1588.011,472.269,1564.693,430.777C1540.918,388.472,1495.775,361.849,1447.252,362.532C1399.834,363.199,1360.885,394.012,1335.396,434.003C1307.358,477.992,1287.301,530.853,1310.046,577.798C1335.36,630.045,1389.285,668.077,1447.252,664.866" fill="rgba(28, 83, 142, 0.4)" class="triangle-float2"></path>
        <path d="M1354.736609231378 133.77277337137883L1297.0722212579174 161.8975745857409 1368.0916170661908 234.33175593875077z" fill="rgba(28, 83, 142, 0.4)" class="triangle-float3"></path>
        <path d="M423.7162857929971 163.85743625967388L324.85040382493605 209.95935415162893 443.4362216468991 335.207218157743z" fill="rgba(28, 83, 142, 0.4)" class="triangle-float1"></path>
        <path d="M1572.2651647759967 128.03052488387067L1662.4079271623089 71.7030753722193 1606.0804776506575-18.43968701409284 1515.9377152643453 37.887762497558526z" fill="rgba(28, 83, 142, 0.4)" class="triangle-float2"></path>
        <path d="M523.238,362.281C556.873,361.082,584.443,337.472,599.95,307.601C614.224,280.105,612.144,247.754,596.61,220.95C581.123,194.227,554.087,176.747,523.238,175.231C489.378,173.567,454.25,184.363,436.218,213.071C417.147,243.433,418.369,282.456,436.432,313.429C454.36,344.17,487.674,363.548,523.238,362.281" fill="rgba(28, 83, 142, 0.4)" class="triangle-float1"></path>
        <path d="M1559.4322989023788 414.25031212441996L1433.2966853036432 308.4099652754011 1327.4563384546245 434.5455788741366 1453.5919520533598 540.3859257231554z" fill="rgba(28, 83, 142, 0.4)" class="triangle-float2"></path>
        <path d="M1490.2301104003275 540.9968206887412L1521.5717974222239 637.4566148633311 1650.5906451731603 542.2141872431914z" fill="rgba(28, 83, 142, 0.4)" class="triangle-float3"></path>
        <path d="M729.803,371.385C755.67,373.187,784.1,365.312,796.375,342.471C808.241,320.391,795.176,295.233,782.28,273.738C769.899,253.101,753.819,233.05,729.803,231.505C703.343,229.803,676.185,242.506,664.164,266.139C652.929,288.226,664.457,313.166,677.57,334.192C689.693,353.63,706.95,369.793,729.803,371.385" fill="rgba(28, 83, 142, 0.4)" class="triangle-float3"></path>
        <path d="M676.3897290976304 245.67481112200798L782.0248121971514 105.76993166389784 630.2712841255914 84.44236415968797z" fill="rgba(28, 83, 142, 0.4)" class="triangle-float3"></path>
        <path d="M1295.6623795249723 68.4046145462262L1131.1955766200363 73.99099552730748 1205.2852274708825 197.29688129288448z" fill="rgba(28, 83, 142, 0.4)" class="triangle-float3"></path>
        <path d="M1239.1956213251372-15.06825253792523L1147.8986638269894-5.472555637999447 1157.4943607269151 85.82440186014828 1248.791318225063 76.2287049602225z" fill="rgba(28, 83, 142, 0.4)" class="triangle-float1"></path>
        <path d="M1528.407,584.517C1560.365,586.533,1590.433,567.856,1606.187,539.978C1621.701,512.524,1618.786,479.3,1603.432,451.756C1587.621,423.392,1560.869,401.302,1528.407,400.443C1494.554,399.547,1460.779,417.04,1446.176,447.595C1432.951,475.266,1450.158,504.839,1465.948,531.131C1481.062,556.296,1499.11,582.669,1528.407,584.517" fill="rgba(28, 83, 142, 0.4)" class="triangle-float1"></path>
        <path d="M1740.286,460.637C1760.848,461.16,1784.381,459.829,1794.791,442.089C1805.276,424.222,1794.899,403.01,1784.676,384.992C1774.262,366.638,1761.388,345.939,1740.286,346.026C1719.266,346.113,1706.43,366.815,1696.525,385.355C1687.362,402.505,1680.61,422.622,1690.382,439.432C1700.117,456.18,1720.92,460.144,1740.286,460.637" fill="rgba(28, 83, 142, 0.4)" class="triangle-float2"></path>
        <path d="M431.038,259.645C454.405,258.929,472.718,242.212,484.627,222.095C496.818,201.502,504.785,176.21,492.638,155.591C480.619,135.188,454.718,130.978,431.038,131.126C407.691,131.272,383.214,136.607,370.754,156.351C357.557,177.263,358.979,204.206,371.443,225.563C383.806,246.746,406.523,260.396,431.038,259.645" fill="rgba(28, 83, 142, 0.4)" class="triangle-float3"></path>
        <path d="M1648.5424086648295 557.3226163126576L1734.6278098188914 577.1969971594143 1754.5021906656482 491.11159600535234 1668.4167895115863 471.23721515859563z" fill="rgba(28, 83, 142, 0.4)" class="triangle-float3"></path>
        <path d="M671.8599200958909 254.8861566025473L575.9850486111624 190.21773923492486 511.31663124354 286.0926107196533 607.1915027282685 350.76102808727575z" fill="rgba(28, 83, 142, 0.4)" class="triangle-float1"></path>
        <path d="M121.0459561647177 513.0234761984515L291.8088872492586 454.40705953606306 174.5233999996567 348.8027324790787z" fill="rgba(28, 83, 142, 0.4)" class="triangle-float2"></path>
    </g>
    <defs>
        <mask id="SvgjsMask1012">
            <rect width="2000" height="560" fill="#ffffff"></rect>
        </mask>
        <style>
            @keyframes float1 {
                0%{transform: translate(0, 0)}
                50%{transform: translate(-10px, 0)}
                100%{transform: translate(0, 0)}
            }

            .triangle-float1 {
                animation: float1 5s infinite;
            }

            @keyframes float2 {
                0%{transform: translate(0, 0)}
                50%{transform: translate(-5px, -5px)}
                100%{transform: translate(0, 0)}
            }

            .triangle-float2 {
                animation: float2 4s infinite;
            }

            @keyframes float3 {
                0%{transform: translate(0, 0)}
                50%{transform: translate(0, -10px)}
                100%{transform: translate(0, 0)}
            }

            .triangle-float3 {
                animation: float3 6s infinite;
            }
        </style>
    </defs>
</svg>