<svg xmlns="http://www.w3.org/2000/svg" version="1.1" xmlns:xlink="http://www.w3.org/1999/xlink" xmlns:svgjs="http://svgjs.com/svgjs" width="1440" height="560" preserveAspectRatio="none" viewBox="0 0 1440 560"><g mask="url(&quot;#SvgjsMask1039&quot;)" fill="none"><rect width="1440" height="560" x="0" y="0" fill="url(#SvgjsLinearGradient1040)"></rect><path d="M 0,53 C 57.6,94.6 172.8,255.2 288,261 C 403.2,266.8 460.8,100 576,82 C 691.2,64 748.8,183 864,171 C 979.2,159 1036.8,4.8 1152,22 C 1267.2,39.2 1382.4,210 1440,257L1440 560L0 560z" fill="#184a7e"></path><path d="M 0,296 C 41.2,348.6 123.6,554.4 206,559 C 288.4,563.6 329.6,336.4 412,319 C 494.4,301.6 535.6,466.6 618,472 C 700.4,477.4 741.6,353.8 824,346 C 906.4,338.2 947.6,430 1030,433 C 1112.4,436 1154,355.6 1236,361 C 1318,366.4 1399.2,440.2 1440,460L1440 560L0 560z" fill="#2264ab"></path></g><defs><mask id="SvgjsMask1039"><rect width="1440" height="560" fill="#ffffff"></rect></mask><linearGradient x1="15.28%" y1="-39.29%" x2="84.72%" y2="139.29%" gradientUnits="userSpaceOnUse" id="SvgjsLinearGradient1040"><stop stop-color="#0e2a47" offset="0"></stop><stop stop-color="#00459e" offset="1"></stop></linearGradient></defs></svg>